<?xml version="1.0" encoding="utf-8"?>
<!-- Generator: Adobe Illustrator 28.1.0, SVG Export Plug-In . SVG Version: 6.00 Build 0)  -->
<svg version="1.1" id="Layer_1" xmlns="http://www.w3.org/2000/svg" xmlns:xlink="http://www.w3.org/1999/xlink" x="0px" y="0px"
	 viewBox="0 0 333.4 57.6" style="enable-background:new 0 0 333.4 57.6;" xml:space="preserve">
<style type="text/css">
	.st0{fill:#005E82;}
	.st1{fill:#638A86;}
</style>
<g transform="translate(0 0)">
	<g>
		<g transform="translate(0 0)">
			<path class="st0" d="M33.5,19.6c-0.9,0.8-2.2,0.7-3-0.1c-5-4.4-9.9-8.4-14.7-11.9c3.6-2.6,7.3-5,11.1-7.2c0.7-0.4,1.6-0.4,2.3,0
				c4.1,2.4,8,4.9,11.8,7.7c1.2,0.9,2.4,1.8,3.5,2.7C40.9,13.4,37.3,16.3,33.5,19.6"/>
			<path class="st1" d="M25.8,24.7c-0.8-0.9-2.2-0.9-3.1,0c0,0,0,0,0,0c-4.8,4.7-7.8,7.6-11.1,11.3c4.3,5.2,12.6,15.9,16.6,21.6
				C32,52,36.4,46.1,41.2,40.3C36.3,34.8,31.2,29.6,25.8,24.7"/>
			<path class="st0" d="M25,16.9c-3.5-3-7.2-5.8-10.6-8.3c-4.9,3.8-9.6,8-14,12.4C0.2,21.3,0,21.6,0,22c0,0.4,0.2,0.7,0.4,1
				c2.5,2.7,7.1,8,10,11.6c4.3-4.7,8.6-9,14.6-14.5C25.9,19.3,25.9,17.8,25,16.9C25,17,25,16.9,25,16.9"/>
			<path class="st0" d="M55.7,21c0.3,0.3,0.4,0.6,0.4,1c0,0.4-0.2,0.8-0.4,1c-4.3,4.7-9.1,10.5-13.5,15.9
				c-3.3-3.8-6.5-7.1-11.2-11.7c-0.8-0.9-0.8-2.2,0-3.1c5-4.6,10-8.7,14.8-12.3C49.3,14.7,52.6,17.8,55.7,21"/>
			<path class="st0" d="M92.3,15.9l-0.4,1.4l-0.3,1h-0.5c-1.5-1.8-3.8-2.8-6.2-2.6c-5.5,0-9,3.8-9,10c0,6.4,3.8,10.6,9.5,10.6
				c1,0,2-0.2,3-0.4c1.2-0.3,2.4-0.8,3.4-1.6l0.4,0.3l-0.3,0.8l-0.4,1.1l-0.3,1.1c-1,0.3-2,0.5-3,0.6c-1.1,0.1-2.3,0.2-3.5,0.2
				c-2.2,0.1-4.3-0.4-6.3-1.3c-4-2.2-6.4-6.5-6.3-11c0-3.6,1.5-7,4.2-9.3c2.5-2.1,5.6-3,9.8-3c1,0,1.9,0.1,2.9,0.2
				c1.2,0.2,2.4,0.4,3.5,0.9L92.3,15.9z"/>
			<path class="st0" d="M110.1,37.9h-2l-0.9,0.1c0.1-0.7,0.2-1.2,0.2-1.5c0.1-0.8,0.2-2.8,0.2-4.9v-2.1l0-0.2c0-1.1-0.1-2.2-0.4-3.2
				c-0.5-1.3-1.8-2.2-3.2-2.1c-1.2,0-2.4,0.5-3.3,1.3c-1.2,1-1.5,2-1.5,4.4v2c-0.1,2.2,0.1,4.3,0.7,6.4l-0.9-0.1H97l-1,0.1
				c0.1-0.5,0.2-1,0.2-1.5c0.1-0.5,0.1-1.4,0.1-2.4c0.1-1.1,0.1-1.9,0.1-2.5l0.1-12.8c0-1.2-0.1-2.4-0.3-3.5c-0.2-0.7-0.8-1.1-1.5-1
				h-0.3l0.6-1.4H96l2.5-0.1l1.1-0.1c-0.2,3-0.3,4.2-0.3,5.7l0,6.4l1.2-1c1.9-1.6,3.3-2.2,5-2.2c1.7-0.1,3.4,0.8,4.2,2.2
				c0.3,0.5,0.4,1,0.5,1.5c0.1,0.9,0.2,1.7,0.1,2.6v3.7c-0.1,2.2,0.1,4.3,0.7,6.4L110.1,37.9z"/>
			<path class="st0" d="M126.9,28.2l-0.3,0.3h-1.8l-3.7,0l-3.5,0.1l-1.7,0.1V29c0,4.6,2.3,7.3,6.4,7.3c0.5,0,1,0,1.4-0.1
				c0.9-0.2,1.7-0.5,2.4-1.1l0.3,0.2l-0.4,1.1l-0.3,1.2c-0.4,0.2-0.8,0.3-1,0.3c-1.2,0.4-2.5,0.5-3.7,0.5c-2.2,0.1-4.4-0.7-5.9-2.4
				c-1.4-1.7-2.1-3.8-2.1-6.1c0-5.2,3.3-8.9,7.8-8.9c3.7,0,6,2.3,6,6C126.9,27.4,126.9,27.7,126.9,28.2 M120.5,22.7
				c-2.5,0-4,1.5-4.5,4.3l2.4,0l3-0.1c1.7,0,2.4-0.5,2.4-1.4C123.7,23.8,122.2,22.6,120.5,22.7"/>
			<path class="st0" d="M143,23.7c-0.7,1.4-1.3,2.8-1.9,4.2l-4.3,11.2c-0.8,1.8-1.3,3.7-1.4,5.6c0,0.2,0,0.5,0,1l-0.8,0l-2.1,0.1
				l-0.7,0.1l-0.1-0.2c0.5-0.7,1-1.5,1.4-2.3c0.3-0.6,0.6-1.3,0.9-1.9c0.5-1.2,0.8-1.8,1.3-3.3c-0.5-1.3-0.5-1.5-1.4-3.5
				c-0.4-1-1-2.6-1.8-4.6l-1.8-4.2c-0.3-0.9-0.8-1.7-1.4-2.4c-0.3-0.2-0.6-0.3-1-0.3h-0.3l0.6-1.3l0.9,0l2.1-0.1l1.1-0.1
				c0.1,0.3,0.1,0.6,0.1,1c0.4,1.7,1,3.3,1.6,4.9l1.6,4.3l1.1,2.6l0.7-1.9l1.7-4.8c0.3-0.7,0.5-1.5,0.7-2.3c0.3-1.2,0.6-2.4,0.6-3.6
				l1.1,0l1.6,0l0.8-0.1l0.1,0.3C143.7,22.5,143.3,23.1,143,23.7"/>
			<path class="st0" d="M158,28.2l-0.3,0.3h-1.8l-3.7,0l-3.5,0.1l-1.7,0.1V29c0,4.6,2.3,7.3,6.4,7.3c0.5,0,1,0,1.4-0.1
				c0.9-0.2,1.7-0.5,2.4-1.1l0.3,0.2l-0.4,1.1l-0.3,1.2c-0.4,0.2-0.8,0.3-1,0.3c-1.2,0.4-2.4,0.5-3.7,0.5c-2.2,0.2-4.4-0.7-5.9-2.4
				c-1.4-1.7-2.1-3.8-2.1-6.1c0-5.2,3.3-8.9,7.8-8.9c3.7,0,6,2.3,6,6C158,27.4,158,27.7,158,28.2 M151.6,22.7c-2.5,0-4,1.5-4.4,4.3
				l2.4,0l3-0.1c1.7,0,2.4-0.5,2.4-1.4C154.8,23.8,153.3,22.6,151.6,22.7"/>
			<path class="st0" d="M175.3,37.9h-2l-0.9,0.1c0.1-0.7,0.2-1.2,0.2-1.5c0.1-0.8,0.2-2.9,0.2-4.9V29c0.1-1.1-0.1-2.1-0.3-3.2
				c-0.5-1.4-1.9-2.2-3.3-2.1c-1.2,0-2.4,0.5-3.3,1.3c-1.2,1-1.5,2-1.5,4.3v2.2c-0.1,2.2,0.1,4.3,0.7,6.4l-0.9-0.1h-2.1l-0.9,0.1
				c0.1-0.5,0.2-1,0.2-1.5c0.1-0.8,0.2-3.1,0.2-4.9l0-3.7c0-1.2-0.1-2.4-0.2-3.5c-0.1-0.7-0.8-1.1-1.5-1.1h-0.3l0.7-1.3h0.8l2-0.1
				l1.1-0.1l-0.1,3l1.4-1.2c1.3-1.3,3.2-2.1,5.1-2.1c1.7-0.1,3.4,0.8,4.3,2.2c0.3,0.5,0.5,1,0.5,1.5c0.1,0.9,0.2,1.7,0.1,2.6v3.8
				c-0.1,2.2,0.1,4.3,0.7,6.4L175.3,37.9z"/>
			<path class="st0" d="M193.2,37.9h-2l-1,0.1c0.1-0.7,0.2-1.2,0.2-1.5c0.1-0.8,0.2-2.9,0.2-4.9V29c0.1-1.1-0.1-2.1-0.3-3.2
				c-0.5-1.4-1.9-2.2-3.3-2.1c-1.2,0-2.4,0.5-3.3,1.3c-1.2,1-1.5,2-1.5,4.3v2.2c-0.1,2.2,0.1,4.3,0.7,6.4l-0.8-0.1h-2.1l-0.9,0.1
				c0.1-0.7,0.2-1.2,0.2-1.5c0.1-0.8,0.2-3.1,0.2-4.9l0-3.7c0-1.2-0.1-2.4-0.2-3.5c-0.1-0.7-0.8-1.1-1.5-1.1h-0.3l0.6-1.3h0.9l2-0.1
				l1.1-0.1l-0.1,3l1.4-1.2c1.3-1.3,3.2-2.1,5.1-2.1c1.7-0.1,3.4,0.8,4.3,2.2c0.3,0.5,0.4,1,0.5,1.5c0.1,0.9,0.2,1.7,0.1,2.6v3.8
				c-0.1,2.2,0.1,4.3,0.7,6.4L193.2,37.9z"/>
			<path class="st0" d="M209.8,28.2l-0.3,0.3h-1.8l-3.7,0l-3.5,0.1l-1.7,0.1V29c0,4.6,2.3,7.3,6.4,7.3c0.5,0,1,0,1.4-0.1
				c0.9-0.2,1.7-0.5,2.4-1.1l0.3,0.2l-0.4,1.1l-0.3,1.2c-0.4,0.2-0.8,0.3-1,0.3c-1.2,0.4-2.5,0.5-3.7,0.5c-2.2,0.1-4.4-0.7-5.9-2.4
				c-1.4-1.7-2.1-3.8-2.1-6.1c0-5.2,3.3-8.9,7.8-8.9c3.7,0,6,2.3,6,6C209.8,27.4,209.8,27.7,209.8,28.2 M203.4,22.7
				c-2.5,0-4,1.5-4.4,4.3l2.4,0l3-0.1c1.7,0,2.4-0.5,2.4-1.4C206.6,23.8,205.1,22.6,203.4,22.7"/>
			<path class="st0" d="M239.1,37.9l-0.9,0l-2.6,0.1l-1.4,0.1c-0.2-0.3-0.3-0.5-0.4-0.6c-0.1-0.1-0.2-0.4-0.4-0.8
				c-0.2-0.3-0.4-0.8-0.7-1.3c-1.4-2.5-3-4.9-4.8-7.2c-1.1-1.5-1.7-1.9-2.6-1.9H225l0.2-0.9l0.1-0.8c1.1,0.1,2.1-0.1,3.1-0.4
				c1.7-0.7,2.7-2.4,2.6-4.2c0-2.6-1.7-4.2-4.6-4.2c-0.8,0-1.6,0.1-2.4,0.2c-0.1,1.4-0.1,1.8-0.1,4.3l0,11.1
				c-0.1,2.2,0.1,4.3,0.7,6.4l-0.9-0.1h-2.5l-1,0.1c0.4-2.1,0.5-4.3,0.4-6.5l0-11.2c0-1.2,0-2.4-0.2-3.5c-0.2-0.7-0.7-1.1-1.7-1.1
				h-0.3l0.6-1.4l2.7,0.1l3.2-0.1c0.9,0,1.7,0,2.4,0c2.9,0,3.9,0.3,5.1,1.2c1.2,1,1.8,2.5,1.7,4c0,1.4-0.5,2.7-1.4,3.7
				c-1,0.9-2.1,1.7-3.3,2.3l0.8,1.1l3.4,5c1.1,1.8,2.4,3.4,3.8,5c0.4,0.5,0.9,0.9,1.5,1.3L239.1,37.9z"/>
			<path class="st0" d="M251.8,28.2l-0.3,0.3h-1.8l-3.7,0l-3.5,0.1l-1.7,0.1V29c0,4.6,2.3,7.3,6.4,7.3c0.5,0,1,0,1.4-0.1
				c0.9-0.2,1.7-0.5,2.4-1.1l0.3,0.2l-0.4,1.1l-0.3,1.2c-0.4,0.2-0.8,0.3-1,0.3c-1.2,0.4-2.4,0.5-3.7,0.5c-2.2,0.1-4.4-0.7-5.9-2.4
				c-1.4-1.7-2.1-3.8-2.1-6.1c0-5.2,3.3-8.9,7.8-8.9c3.7,0,6,2.3,6,6C251.8,27.4,251.8,27.7,251.8,28.2 M245.4,22.7
				c-2.5,0-4,1.5-4.5,4.3l2.4,0l3-0.1c1.7,0,2.4-0.5,2.4-1.4C248.6,23.8,247.1,22.6,245.4,22.7"/>
			<path class="st0" d="M268.5,22.7l-0.4,0.9l-1.2-0.1l-1.4-0.1h-0.4c0.7,0.8,1.1,1.9,1,3c0,3.2-2.5,5.4-6.3,5.4
				c-0.5,0-1.1-0.1-1.6-0.2c-0.9,0.7-1.2,1.2-1.2,1.8c0,0.7,0.5,1.3,1.2,1.5c0.9,0.3,2,0.5,3,0.5h1.7c1.1-0.1,2.3,0.2,3.3,0.7
				c1.2,0.8,1.9,2.2,1.9,3.6c0,3.8-3.5,6.4-8.5,6.4c-4.2,0-7.1-1.9-7.1-4.7c0-0.5,0.1-1,0.3-1.4c0.2-0.4,0.4-0.8,0.6-1.1
				c0.3-0.3,0.6-0.6,1-0.9c0.1-0.1,0.4-0.3,1-0.6l1.1-0.7l-0.6-0.3c-0.9-0.4-1.6-1.2-1.7-2.2c0-0.8,0.5-1.4,1.4-2.1l1.4-1.1
				c-0.5-0.2-1-0.5-1.4-0.9c-1-1-1.5-2.3-1.5-3.7c0-3.2,2.5-5.3,6.3-5.3c0.9,0,1.9,0.2,2.8,0.5h3c0.9,0,1.8,0,2.8-0.1l0.2,0.2
				L268.5,22.7z M264.5,38.5c-0.8-0.6-1.7-0.8-4.7-0.8h-0.3c-0.8-0.1-1.6,0-2.3,0.4c-1.2,0.6-1.9,1.7-2,3c0,2.2,1.9,3.5,5,3.5
				c3.2,0,5.4-1.6,5.4-3.9C265.5,39.9,265.1,39.1,264.5,38.5 M260,22.8c-0.1,0-0.3,0-0.4,0c-1.7,0.2-2.7,1.5-2.7,3.5
				c0,2.4,1.4,4.1,3.3,4.1c1.9,0,3.1-1.4,3.1-3.5C263.4,24.5,262,22.8,260,22.8"/>
			<path class="st0" d="M274.4,37.9h-2.1l-1,0.1c0.1-0.5,0.2-1,0.2-1.5c0.1-0.8,0.2-3.1,0.2-4.9l0-3.7c0-1.2-0.1-2.4-0.2-3.5
				c-0.1-0.7-0.8-1.1-1.5-1.1h-0.3l0.6-1.3l0.8,0l2.5-0.1l1.1-0.1c-0.2,3-0.3,4.2-0.3,5.7l0,4.2c-0.1,2.2,0.1,4.3,0.7,6.4
				L274.4,37.9z M272.9,17.6c-1.1,0-1.4-0.3-1.4-1.5c0-1.8,0.3-2.2,2-2.2c1.1,0,1.4,0.3,1.4,1.6v0.2C275,17.4,274.7,17.6,272.9,17.6
				"/>
			<path class="st0" d="M285.3,38.5c-4.8,0-8-3.3-8-8.5s3.3-8.8,8.2-9c0.2,0,0.4,0,0.6,0c4.9,0,7.9,3.3,7.9,8.4
				C294,34.8,290.4,38.5,285.3,38.5 M285.6,22.5c-0.2,0-0.4,0-0.6,0c-2.8,0.4-4.3,2.9-4.3,6.8c0,4.6,2.1,7.6,5.1,7.6
				c3,0,5-2.8,5-6.8C290.7,25.6,288.7,22.5,285.6,22.5"/>
			<path class="st0" d="M310.8,37.9h-2l-1,0.1c0.1-0.7,0.2-1.2,0.2-1.5c0.1-0.8,0.2-2.9,0.2-4.9V29c0.1-1.1-0.1-2.1-0.3-3.2
				c-0.5-1.4-1.9-2.2-3.3-2.1c-1.2,0-2.4,0.5-3.3,1.3c-1.2,1-1.5,2-1.5,4.3v2.2c-0.1,2.2,0.1,4.3,0.7,6.4l-0.8-0.1h-2.1l-1,0.1
				c0.1-0.5,0.2-1,0.2-1.5c0.1-0.8,0.2-3.1,0.2-4.9l0-3.7c0-1.2-0.1-2.4-0.2-3.5c-0.1-0.7-0.8-1.1-1.5-1.1h-0.3l0.6-1.3h0.8l2-0.1
				l1.1-0.1l-0.1,3l1.4-1.2c1.3-1.3,3.2-2.1,5.1-2.1c1.7-0.1,3.4,0.8,4.3,2.2c0.3,0.5,0.5,1,0.5,1.5c0.1,0.9,0.2,1.7,0.1,2.6v3.8
				c-0.1,2.2,0.1,4.3,0.7,6.4L310.8,37.9z"/>
			<path class="st0" d="M327,37.9h-0.8l-1.9,0.1l-1.1,0.1l-0.1-2.5l-1.3,1.1c-1.1,1.1-2.5,1.7-4.1,1.7c-2.2,0.1-4.1-1.7-4.2-3.9
				c0-0.2,0-0.3,0-0.5c0-1.4,0.6-2.8,1.8-3.6c1-0.7,2.9-1.3,5.5-1.6c1.8-0.2,1.9-0.3,1.9-1.5c0-1.8-0.2-2.4-0.8-3.1
				c-0.7-0.7-1.7-1-2.6-1c-0.6,0-1.2,0.1-1.7,0.3c-0.7,0.2-1.3,0.7-1.7,1.3l-0.4-0.1l0.1-1.3l0-1.2c0.9-0.5,1.9-0.8,2.9-0.9
				c0.6-0.1,1.2-0.2,1.8-0.2c3.4,0,5.2,1.5,5.2,4.4l0,1.7v4.3c0,1.3,0.1,2.6,0.4,3.8c0.2,0.7,0.6,1,1.6,1h0.3L327,37.9z M322.7,31.7
				l-0.1-1.5c-2.7,0.2-3.6,0.4-4.6,0.9c-1,0.4-1.6,1.4-1.6,2.5c-0.1,1.4,0.9,2.6,2.3,2.7c0.1,0,0.2,0,0.3,0c0.8,0,1.6-0.3,2.3-0.9
				c1.1-0.7,1.6-2,1.4-3.3L322.7,31.7z"/>
			<path class="st0" d="M332.5,37.9h-2.1l-1,0.1c0.1-0.7,0.2-1.2,0.2-1.5c0.1-0.5,0.1-1.4,0.1-2.4c0.1-1.1,0.1-1.9,0.1-2.5l0.1-12.8
				c0-1.2-0.1-2.4-0.3-3.5c-0.2-0.7-0.8-1.1-1.5-1H328l0.6-1.4h0.8l2.5-0.1l1.1-0.1c-0.2,3.1-0.3,4.3-0.3,5.7l0,13.3
				c-0.1,2.2,0.1,4.3,0.7,6.4L332.5,37.9z"/>
		</g>
	</g>
</g>
</svg>
