<?xml version="1.0" encoding="utf-8"?>
<!-- Generator: Adobe Illustrator 28.1.0, SVG Export Plug-In . SVG Version: 6.00 Build 0)  -->
<svg version="1.1" id="Layer_1" xmlns="http://www.w3.org/2000/svg" xmlns:xlink="http://www.w3.org/1999/xlink" x="0px" y="0px"
	 viewBox="0 0 294.8 40" style="enable-background:new 0 0 294.8 40;" xml:space="preserve">
<style type="text/css">
	.st0{fill:#FFFFFF;}
</style>
<g id="Design_Elements">
	<g>
		<g>
			<path class="st0" d="M220.4,20.7c0,1.4-1.2,2.6-2.6,2.6s-2.6-1.2-2.6-2.6s1.2-2.6,2.6-2.6C219.2,18,220.4,19.2,220.4,20.7z
				 M222.7,20.7c0-2.7-2.2-5-5-5s-5,2.2-5,5s2.2,5,5,5S222.7,23.4,222.7,20.7z"/>
			<path class="st0" d="M209.5,22.2c-0.5,0.8-1.3,1.3-2.2,1.2c-1.4-0.1-2.4-1.3-2.3-2.6v-0.1c0-1.3,0.7-2.7,2.4-2.7
				c0.9,0,1.7,0.3,2.2,1L209.5,22.2L209.5,22.2z M212,25.4V12h-2.6v4.9c-0.7-0.7-1.7-1.1-2.7-1.1c-2.6,0-4.4,2.2-4.4,4.9
				s1.9,5,4.3,5c1.1,0.1,2.2-0.5,2.9-1.4v1.1H212L212,25.4z"/>
			<path class="st0" d="M199,25.4h2.6v-4.9c0.1-1.2-0.2-2.5-0.8-3.5c-0.6-0.8-1.5-1.2-2.5-1.2c-1.1,0-2.2,0.6-2.9,1.5l-0.2-1.3h-2.2
				v9.4h2.6v-6.2c0.4-0.7,1.2-1.2,2-1.2c0.5-0.1,1,0.2,1.3,0.6c0.2,0.6,0.3,1.4,0.3,2L199,25.4L199,25.4z"/>
			<path class="st0" d="M189.4,19.6h-4c0.2-1,1-1.8,2.2-1.8C188.5,17.7,189.4,18.4,189.4,19.6L189.4,19.6z M192,20.1
				c0-2.4-1.9-4.3-4.2-4.3h-0.2c-2.6,0-4.8,2.2-4.7,4.8v0.2c-0.2,2.5,1.8,4.6,4.2,4.8h0.5c1.8,0.1,3.4-0.8,4.2-2.3l-1.7-1.1
				c-0.5,0.9-1.4,1.4-2.4,1.4c-1.3,0-2.3-1-2.3-2.2h6.6C192,20.9,192,20.5,192,20.1z"/>
			<path class="st0" d="M180.2,17.2h2.4v-2.1h-2.4v-3h-2.6v10c0,0.6,0.1,1,0.2,1.6c0.3,1.3,1.5,2.1,2.8,2c0.7,0,1.5-0.2,2.2-0.6
				c-0.5-0.6-0.8-1.1-1-1.8c-0.2,0.1-0.5,0.2-0.7,0.2c-0.6,0-0.7-0.3-0.8-0.9c0-0.2-0.1-0.6,0-0.8L180.2,17.2L180.2,17.2z"/>
			<path class="st0" d="M165.7,19.3v6.2h3.3v-6.2c0-2.2,1.8-3.8,3.8-3.8h0.1v-3.4C169,12.1,165.7,15.3,165.7,19.3z"/>
			<path class="st0" d="M164.8,19.3v6.2h-3.3v-6.2c0-2.2-1.8-3.8-3.8-3.8h-0.1v-3.4C161.6,12.1,164.8,15.3,164.8,19.3z"/>
			<path class="st0" d="M232.7,25.6c-2.3,0.1-4.2-1.8-4.3-4.2v-0.4c-0.1-2.4,1.8-4.4,4.2-4.5h0.2c1.2-0.1,2.4,0.3,3.4,1.1l-0.6,1
				c-0.7-0.7-1.7-1-2.6-1c-1.7,0-3,1.4-3,3V21c-0.1,1.7,1.2,3.2,2.9,3.3h0.2c1,0,2-0.4,2.6-1.1l0.6,1
				C235.2,25.3,234,25.8,232.7,25.6L232.7,25.6z"/>
			<path class="st0" d="M236.4,21.2c0-2.5,2-4.5,4.5-4.5s4.5,2,4.5,4.5s-2,4.5-4.5,4.5C238.4,25.7,236.4,23.6,236.4,21.2z M244,21.2
				c0.2-1.7-1.1-3.2-2.9-3.4c-1.8-0.2-3.2,1.1-3.4,2.9v0.5c-0.2,1.7,1.1,3.2,2.9,3.4c1.7,0.2,3.2-1.1,3.4-2.9V21.2z"/>
			<path class="st0" d="M255.8,16.7c2.5,0,3,1.8,3,3.6v5.2h-1.4v-5.1c0-1-0.2-2.5-1.8-2.5c-1.4,0-2.2,1.4-2.2,3v4.6H252v-5.1
				c0-1-0.2-2.5-1.8-2.5c-1.4,0-2.2,1.4-2.2,3v4.6h-1.4v-8.6h1.4v1.4h0.1c0.4-1,1.4-1.5,2.4-1.5c1.7,0,2.5,0.8,2.8,1.8
				C253.6,17.5,254.7,16.7,255.8,16.7L255.8,16.7z"/>
			<path class="st0" d="M260.6,16.8h1.4v1.5c0.7-1,1.8-1.7,3.1-1.7c2.6,0,4.2,1.9,4.2,4.5s-1.8,4.5-4.2,4.5
				c-1.3,0.1-2.5-0.6-3.2-1.7v5h-1.4L260.6,16.8L260.6,16.8z M267.9,21.2c0-1.8-1.1-3.4-3-3.4c-1.7,0.1-3,1.5-3,3.2v0.2
				c0,1.8,1,3.3,3,3.3S267.9,23,267.9,21.2z"/>
			<path class="st0" d="M275.7,24.4c-0.7,0.9-1.8,1.4-2.8,1.4c-1.5,0.2-2.8-1-3-2.5v-0.2c0-1.4,1.1-2.5,3.4-2.6l2.3-0.1V20
				c0-1.4-1-2.1-2.2-2.1c-0.9,0-1.8,0.2-2.6,0.7l-0.5-1c1-0.6,2-0.8,3-0.9c2.5,0,3.6,1.3,3.6,3.8v5h-1.4L275.7,24.4L275.7,24.4z
				 M273.5,21.4c-1.6,0.1-2.2,0.7-2.2,1.6c0.1,0.9,0.8,1.6,1.7,1.6h0.1c1,0,1.9-0.5,2.6-1.2v-2.1L273.5,21.4L273.5,21.4z"/>
			<path class="st0" d="M286,20.3v5.2h-1.4v-5.1c0-1.6-0.5-2.5-2.1-2.5s-2.3,1.3-2.3,2.7v4.9h-1.4v-8.6h1.4v1.4h0.1
				c0.5-1,1.5-1.6,2.7-1.6C285.4,16.7,286,18.2,286,20.3z"/>
			<path class="st0" d="M286.4,16.8h1.4l2.8,7.1l2.7-7.1h1.4L290.6,27c-0.6,1.6-1.3,2-2.2,2c-0.5,0-0.9-0.1-1.4-0.3l0.2-1.1
				c0.2,0.1,0.6,0.2,0.9,0.2c0.4,0,0.7,0,1.3-1.2l0.5-1.1L286.4,16.8L286.4,16.8z"/>
			<path class="st0" d="M151.1,22h-6l-1.4,3.7h-1.5l5.4-13.1h1l5.4,13.1h-1.6L151.1,22L151.1,22z M148,14.4l-2.5,6.2h5L148,14.4
				L148,14.4z"/>
		</g>
		<g id="Company">
			<g>
				<path class="st0" d="M6.6,13.8c0.8,0.7,1.2,1.5,1.2,2.7s-0.4,2-1.2,2.7c-0.8,0.7-1.8,0.9-3,0.9H1.8v5.4H0V12.9h3.5
					C4.8,12.9,5.8,13.2,6.6,13.8L6.6,13.8z M5.2,18.2C5.7,17.9,6,17.3,6,16.5s-0.3-1.4-0.8-1.7c-0.5-0.3-1-0.5-1.8-0.5H1.8v4.3h1.6
					C4.2,18.7,4.8,18.5,5.2,18.2L5.2,18.2z"/>
				<path class="st0" d="M12.7,16.7c2.6,0,4.6,1.8,4.6,4.5s-2,4.5-4.6,4.5s-4.6-1.8-4.6-4.5S10.1,16.7,12.7,16.7z M15.5,21.2
					c0-1.7-1.1-3-2.8-3s-2.8,1.4-2.8,3s1.1,3.1,2.8,3.1S15.5,22.9,15.5,21.2z"/>
				<path class="st0" d="M19.2,16.9l2,6.5l2.3-6.6h1.4l2.3,6.6l2-6.5H31l-2.9,8.7h-1.6l-2.3-6.5l-2.3,6.5h-1.6l-2.9-8.7H19.2
					L19.2,16.9z"/>
				<path class="st0" d="M35.8,25.7c-2.6,0-4.3-1.8-4.3-4.5s2-4.5,4.4-4.5s4.1,1.7,4.1,4.1c0,0.3,0,0.8,0,0.8h-6.7
					c0.1,1.7,1.2,2.8,2.8,2.8s2.7-0.9,2.9-1l0.7,1C39.5,24.5,38.4,25.7,35.8,25.7L35.8,25.7z M35.8,18c-1.7,0-2.5,1.4-2.6,2.5h5.1
					C38.2,19.5,37.5,18,35.8,18z"/>
				<path class="st0" d="M43,16.9l0,1.3h0c0.4-1,1.2-1.5,2.1-1.5c0.6,0,0.9,0.1,0.9,0.1L46,18.5h-0.1c-0.2-0.1-0.5-0.2-1-0.2
					c-0.8,0-1.2,0.5-1.4,0.7c-0.2,0.2-0.5,0.9-0.5,2.2v4.3h-1.8v-8.7H43z"/>
				<path class="st0" d="M50.7,25.7c-2.6,0-4.3-1.8-4.3-4.5s2-4.5,4.4-4.5s4.1,1.7,4.1,4.1c0,0.3-0.1,0.8-0.1,0.8h-6.7
					c0.1,1.7,1.2,2.8,2.8,2.8s2.7-0.9,2.9-1l0.7,1C54.4,24.5,53.3,25.7,50.7,25.7L50.7,25.7z M50.7,18c-1.7,0-2.5,1.4-2.5,2.5h5
					C53.2,19.5,52.5,18,50.7,18z"/>
				<path class="st0" d="M63,24.1c-0.7,1.1-1.8,1.6-3.1,1.6c-2.6,0-4.2-2-4.2-4.5s1.6-4.5,4.2-4.5c1.4,0,2.4,0.6,3,1.5h0v-5.3h1.7
					v12.6H63V24.1z M63,21.2c0-1.7-1-3-2.8-3s-2.8,1.3-2.8,3s1,3.1,2.8,3.1S63,22.9,63,21.2z"/>
				<path class="st0" d="M71.9,12.9v4.4c0,0.2,0,0.7,0,1c0.6-1.1,1.8-1.6,3.1-1.6c2.5,0,4.2,1.9,4.2,4.5s-1.6,4.5-4.2,4.5
					c-1.3,0-2.3-0.5-3.1-1.6h0v1.4h-1.7V12.9L71.9,12.9L71.9,12.9z M77.4,21.2c0-1.7-1-3-2.8-3s-2.8,1.3-2.8,3s1,3.1,2.8,3.1
					S77.4,22.9,77.4,21.2z"/>
				<path class="st0" d="M80.9,27.5c0.4,0,0.8,0,1.1-1l0.4-1.1l-3.5-8.5l1.8,0l2.6,6.7l2.6-6.8l1.8,0L83.6,27c-0.6,1.5-1.3,2-2.3,2
					s-1.6-0.3-1.6-0.3l0.3-1.4C80,27.3,80.5,27.5,80.9,27.5L80.9,27.5z"/>
			</g>
		</g>
		<g>
			<path class="st0" d="M124.4,8.9c-0.8-0.3-1.5-0.3-2.5-0.3h-2.5v11.8h2.5c1.1,0,1.8-0.1,2.5-0.4c2.1-0.6,3.7-3,3.7-5.6
				S126.6,9.6,124.4,8.9L124.4,8.9z"/>
			<path class="st0" d="M130.8,31.7L130.8,31.7l-0.1,0.2h0.1C130.9,31.9,130.9,31.9,130.8,31.7C130.9,31.7,130.9,31.7,130.8,31.7
				L130.8,31.7z"/>
			<path class="st0" d="M126.2,25.5c-1.2,0-2.1,0.7-2.4,1.9h4.4C128.1,26.5,127.5,25.5,126.2,25.5z"/>
			<path class="st0" d="M108.7,30.2c0,0.6,0.5,1.2,1.5,1.2c1.3,0,2.2-1.4,2.2-2.7v-0.1h-0.2C110.5,28.7,108.7,28.9,108.7,30.2z"/>
			<path class="st0" d="M130.8,31.4c-0.3,0-0.5,0.2-0.5,0.5s0.2,0.6,0.5,0.6s0.5-0.2,0.5-0.5S131.1,31.4,130.8,31.4z M130.9,32.3
				l-0.1-0.3h-0.1v0.3h-0.2v-0.8h0.3c0.1,0,0.3,0.1,0.3,0.2c0,0.1-0.1,0.2-0.1,0.2c0,0,0,0,0,0l0.1,0.3H130.9z"/>
			<path class="st0" d="M95,0v40h40V0H95z M100.2,7.1h3.4l5,9.5l5-9.5h1.6v13.3h1.8v1.5h-5.3v-1.5h1.8v-9c0-0.2,0-0.4,0-0.6
				c-0.1,0.2-0.1,0.4-0.2,0.6l0,0l-3.8,7.2h-1.8l-3.8-7.2l0,0c-0.1-0.2-0.1-0.4-0.2-0.6c0,0.2,0,0.4,0,0.6v9h1.8v1.5h-5.3v-1.5h1.8
				V8.6h-1.8L100.2,7.1L100.2,7.1z M103.4,32.9c-2,0-3-1.2-3.1-1.2l-0.1-0.1l0.9-1.2l0.2,0.2c0,0,0.8,0.9,2.2,0.9
				c0.6,0,1.3-0.3,1.3-1c0-0.6-0.8-0.9-1.6-1.3c-1.2-0.5-2.6-1-2.6-2.6c0-1.4,1.2-2.4,2.9-2.4s2.6,0.9,2.6,0.9l0.1,0.1l-0.7,1.2
				l-0.2-0.2c0,0-0.6-0.6-1.8-0.6c-0.3,0-1.3,0.1-1.3,1c0,0.6,0.8,0.9,1.6,1.3c1.2,0.5,2.6,1,2.6,2.6
				C106.3,31.8,105,32.9,103.4,32.9L103.4,32.9z M113.9,32.7h-1.5v-0.9c-0.4,0.5-1.2,1.1-2.4,1.1c-1.4,0-2.9-0.9-2.9-2.6
				c0-3,3.8-3,5.1-3h0.2c0-1.2-0.6-1.7-1.7-1.7s-2.1,0.7-2.1,0.7l-0.2,0.2l-0.8-1.2l0.2-0.1c0,0,1.1-1,2.9-1c2.1,0,3.2,1.2,3.2,3.3
				L113.9,32.7L113.9,32.7z M118.9,32.7h-1.5l-3.2-8.4h1.7l2.2,5.9c0,0,0,0.1,0.1,0.2c0-0.1,0-0.1,0.1-0.2l2.2-5.9h1.6L118.9,32.7
				L118.9,32.7z M129.7,28.6l0,0.2h-6c0.1,1.2,0.9,2.6,2.8,2.6c1.3,0,2.2-0.9,2.2-0.9l0.2-0.2l0.8,1.2l-0.1,0.1c0,0-1.2,1.2-3.1,1.2
				c-2.5,0-4.3-1.8-4.3-4.4s1.7-4.4,4.1-4.4s3.5,2,3.5,3.9C129.8,28.2,129.7,28.6,129.7,28.6L129.7,28.6z M125.1,21.5
				c-0.9,0.3-1.8,0.4-3.1,0.4h-4.4V8.6h-1.8V7.1h6.2c1.2,0,2.1,0.1,3.1,0.4c2.9,0.9,4.7,3.5,4.7,7S128,20.6,125.1,21.5L125.1,21.5z
				 M130.8,32.7c-0.4,0-0.7-0.3-0.7-0.8s0.3-0.8,0.7-0.8s0.7,0.3,0.7,0.8C131.5,32.4,131.2,32.7,130.8,32.7z"/>
		</g>
	</g>
</g>
</svg>
