<?xml version="1.0" encoding="utf-8"?>
<!-- Generator: Adobe Illustrator 28.1.0, SVG Export Plug-In . SVG Version: 6.00 Build 0)  -->
<svg version="1.1" id="Layer_1" xmlns="http://www.w3.org/2000/svg" xmlns:xlink="http://www.w3.org/1999/xlink" x="0px" y="0px"
	 viewBox="0 0 292.2 40" style="enable-background:new 0 0 292.2 40;" xml:space="preserve">
<style type="text/css">
	.st0{fill:#FFFFFF;}
</style>
<g id="Design_Elements">
	<g>
		<g>
			<path class="st0" d="M217.7,20.7c0,1.4-1.2,2.6-2.6,2.6s-2.6-1.2-2.6-2.6s1.2-2.6,2.6-2.6C216.6,18,217.7,19.2,217.7,20.7z
				 M220,20.7c0-2.7-2.2-5-5-5s-5,2.2-5,5s2.2,5,5,5S220,23.4,220,20.7z"/>
			<path class="st0" d="M206.8,22.2c-0.5,0.8-1.3,1.3-2.2,1.2c-1.4-0.1-2.4-1.3-2.3-2.6v-0.1c0-1.3,0.7-2.7,2.4-2.7
				c0.9,0,1.7,0.3,2.2,1L206.8,22.2L206.8,22.2z M209.4,25.4V12h-2.6v4.9c-0.7-0.7-1.7-1.1-2.7-1.1c-2.6,0-4.4,2.2-4.4,4.9
				s1.9,5,4.3,5c1.1,0.1,2.2-0.5,2.9-1.4v1.1H209.4L209.4,25.4z"/>
			<path class="st0" d="M196.3,25.4h2.6v-4.9c0.1-1.2-0.2-2.5-0.8-3.5c-0.6-0.8-1.5-1.2-2.5-1.2c-1.1,0-2.2,0.6-2.9,1.5l-0.2-1.3
				h-2.2v9.4h2.6v-6.2c0.4-0.7,1.2-1.2,2-1.2c0.5-0.1,1,0.2,1.3,0.6c0.2,0.6,0.3,1.4,0.3,2L196.3,25.4L196.3,25.4z"/>
			<path class="st0" d="M186.7,19.6h-4c0.2-1,1-1.8,2.2-1.8C185.9,17.7,186.7,18.4,186.7,19.6L186.7,19.6z M189.3,20.1
				c0-2.4-1.9-4.3-4.2-4.3h-0.2c-2.6,0-4.8,2.2-4.7,4.8v0.2c-0.2,2.5,1.8,4.6,4.2,4.8h0.5c1.8,0.1,3.4-0.8,4.2-2.3l-1.7-1.1
				c-0.5,0.9-1.4,1.4-2.4,1.4c-1.3,0-2.3-1-2.3-2.2h6.6C189.3,20.9,189.3,20.5,189.3,20.1z"/>
			<path class="st0" d="M177.5,17.2h2.4v-2.1h-2.4v-3H175v10c0,0.6,0.1,1,0.2,1.6c0.3,1.3,1.5,2.1,2.8,2c0.7,0,1.5-0.2,2.2-0.6
				c-0.5-0.6-0.8-1.1-1-1.8c-0.2,0.1-0.5,0.2-0.7,0.2c-0.6,0-0.7-0.3-0.8-0.9c0-0.2-0.1-0.6,0-0.8L177.5,17.2L177.5,17.2z"/>
			<path class="st0" d="M163.1,19.3v6.2h3.3v-6.2c0-2.2,1.8-3.8,3.8-3.8h0.1v-3.4C166.3,12.1,163.1,15.3,163.1,19.3z"/>
			<path class="st0" d="M162.2,19.3v6.2h-3.3v-6.2c0-2.2-1.8-3.8-3.8-3.8H155v-3.4C159,12.1,162.2,15.3,162.2,19.3z"/>
			<path class="st0" d="M230,25.6c-2.3,0.1-4.2-1.8-4.3-4.2v-0.4c-0.1-2.4,1.8-4.4,4.2-4.5h0.2c1.2-0.1,2.4,0.3,3.4,1.1l-0.6,1
				c-0.7-0.7-1.7-1-2.6-1c-1.7,0-3,1.4-3,3V21c-0.1,1.7,1.2,3.2,2.9,3.3h0.2c1,0,2-0.4,2.6-1.1l0.6,1
				C232.6,25.3,231.3,25.8,230,25.6L230,25.6z"/>
			<path class="st0" d="M233.7,21.2c0-2.5,2-4.5,4.5-4.5s4.5,2,4.5,4.5s-2,4.5-4.5,4.5C235.8,25.7,233.7,23.6,233.7,21.2z
				 M241.3,21.2c0.2-1.7-1.1-3.2-2.9-3.4c-1.8-0.2-3.2,1.1-3.4,2.9v0.5c-0.2,1.7,1.1,3.2,2.9,3.4c1.7,0.2,3.2-1.1,3.4-2.9V21.2z"/>
			<path class="st0" d="M253.1,16.7c2.5,0,3,1.8,3,3.6v5.2h-1.4v-5.1c0-1-0.2-2.5-1.8-2.5c-1.4,0-2.2,1.4-2.2,3v4.6h-1.4v-5.1
				c0-1-0.2-2.5-1.8-2.5c-1.4,0-2.2,1.4-2.2,3v4.6h-1.4v-8.6h1.4v1.4h0.1c0.4-1,1.4-1.5,2.4-1.5c1.7,0,2.5,0.8,2.8,1.8
				C251,17.5,252,16.7,253.1,16.7L253.1,16.7z"/>
			<path class="st0" d="M257.9,16.8h1.4v1.5c0.7-1,1.8-1.7,3.1-1.7c2.6,0,4.2,1.9,4.2,4.5s-1.8,4.5-4.2,4.5
				c-1.3,0.1-2.5-0.6-3.2-1.7v5h-1.4L257.9,16.8L257.9,16.8z M265.2,21.2c0-1.8-1.1-3.4-3-3.4c-1.7,0.1-3,1.5-3,3.2v0.2
				c0,1.8,1,3.3,3,3.3S265.2,23,265.2,21.2z"/>
			<path class="st0" d="M273,24.4c-0.7,0.9-1.8,1.4-2.8,1.4c-1.5,0.2-2.8-1-3-2.5v-0.2c0-1.4,1.1-2.5,3.4-2.6l2.3-0.1V20
				c0-1.4-1-2.1-2.2-2.1c-0.9,0-1.8,0.2-2.6,0.7l-0.5-1c1-0.6,2-0.8,3-0.9c2.5,0,3.6,1.3,3.6,3.8v5h-1.4L273,24.4L273,24.4z
				 M270.8,21.4c-1.6,0.1-2.2,0.7-2.2,1.6c0.1,0.9,0.8,1.6,1.7,1.6h0.1c1,0,1.9-0.5,2.6-1.2v-2.1L270.8,21.4L270.8,21.4z"/>
			<path class="st0" d="M283.3,20.3v5.2h-1.4v-5.1c0-1.6-0.5-2.5-2.1-2.5s-2.3,1.3-2.3,2.7v4.9h-1.4v-8.6h1.4v1.4h0.1
				c0.5-1,1.5-1.6,2.7-1.6C282.7,16.7,283.3,18.2,283.3,20.3z"/>
			<path class="st0" d="M283.8,16.8h1.4L288,24l2.7-7.1h1.4L287.9,27c-0.6,1.6-1.3,2-2.2,2c-0.5,0-0.9-0.1-1.4-0.3l0.2-1.1
				c0.2,0.1,0.6,0.2,0.9,0.2c0.4,0,0.7,0,1.3-1.2l0.5-1.1L283.8,16.8L283.8,16.8z"/>
			<path class="st0" d="M148.4,22h-6l-1.4,3.7h-1.5l5.4-13.1h1l5.4,13.1h-1.6L148.4,22L148.4,22z M145.4,14.4l-2.5,6.2h5L145.4,14.4
				L145.4,14.4z"/>
		</g>
		<g id="Company">
			<g>
				<path class="st0" d="M6.1,13.7c0.8,0.6,1.3,1.5,1.3,2.7c0,1.3-0.6,2.3-1.6,2.9C5,19.7,4,19.9,3,19.9H1.4v5.6H0V12.9h3.3
					C4.4,12.9,5.4,13.2,6.1,13.7z M5.1,18.2c0.5-0.4,0.9-1,0.9-1.8c0-0.8-0.3-1.4-0.9-1.8c-0.5-0.4-1.1-0.5-1.9-0.5H1.4v4.6h1.8
					C4,18.7,4.6,18.6,5.1,18.2z"/>
				<path class="st0" d="M12.2,16.8c2.5,0,4.5,1.9,4.5,4.5s-2,4.4-4.5,4.4s-4.4-1.8-4.4-4.4S9.7,16.8,12.2,16.8z M15.3,21.2
					c0-1.8-1.2-3.3-3.1-3.3s-3.1,1.4-3.1,3.3s1.2,3.3,3.1,3.3S15.3,23.1,15.3,21.2z"/>
				<path class="st0" d="M18.2,17l2.2,6.8l2.5-6.8h1.1l2.5,6.9l2.1-6.8h1.4l-2.9,8.6h-1.3l-2.5-6.8l-2.5,6.8h-1.3L16.9,17
					C16.9,17,18.2,17,18.2,17z"/>
				<path class="st0" d="M34.8,25.7c-2.5,0-4.2-1.7-4.2-4.5c0-2.4,1.7-4.4,4.2-4.4c2.3,0,4,1.7,4,4c0,0.3,0,0.7,0,0.7H32
					c0,1.8,1.2,3,3.1,3c1.7,0,2.9-1.1,2.9-1.1l0.6,0.8C37.7,25.2,36.5,25.7,34.8,25.7L34.8,25.7z M34.7,17.9c-1.7,0-2.7,1.3-2.8,2.6
					h5.4C37.4,19.3,36.6,18,34.7,17.9z"/>
				<path class="st0" d="M41.6,17v1.5c0.4-1,1.2-1.6,2.2-1.6c0.6,0,0.9,0.1,0.9,0.1l-0.1,1.3h0c-0.3-0.1-0.7-0.2-0.9-0.2
					c-0.8,0-1.3,0.5-1.4,0.8c-0.3,0.5-0.6,1-0.6,2.3v4.4h-1.3V17L41.6,17L41.6,17z"/>
				<path class="st0" d="M49.2,25.7c-2.5,0-4.2-1.7-4.2-4.5c0-2.4,1.7-4.4,4.2-4.4c2.3,0,4,1.7,4,4c0,0.3,0,0.7,0,0.7h-6.8
					c0,1.8,1.2,3,3.1,3c1.7,0,2.9-1.1,2.9-1.1l0.6,0.8C52.1,25.2,50.9,25.7,49.2,25.7L49.2,25.7z M49.2,17.9c-1.7,0-2.7,1.3-2.8,2.6
					h5.4C51.8,19.3,51.1,18,49.2,17.9z"/>
				<path class="st0" d="M61.5,24c-0.6,1-1.8,1.7-3.2,1.7c-2.6,0-4.1-1.9-4.1-4.5s1.6-4.5,4.2-4.5c1.3,0,2.5,0.6,3.1,1.6h0v-5.5h1.3
					v12.6h-1.3C61.5,25,61.5,24.5,61.5,24z M61.5,21.2c0-1.9-1.1-3.3-3-3.3s-3,1.4-3,3.2s1.1,3.3,3,3.3S61.5,23.1,61.5,21.2z"/>
				<path class="st0" d="M69.8,12.9v5.5c0.6-0.9,1.7-1.7,3.1-1.7c2.6,0,4.1,1.9,4.1,4.4s-1.7,4.5-4.1,4.5c-1.3,0-2.5-0.5-3.2-1.7h0
					v1.5h-1.3V12.9L69.8,12.9L69.8,12.9z M75.7,21.2c0-1.9-1.1-3.3-3-3.3c-1.7,0-3,1.4-3,3.3s1,3.3,2.9,3.3S75.8,23.1,75.7,21.2
					L75.7,21.2z"/>
				<path class="st0" d="M78.8,27.8c0.4,0,0.8,0,1.2-1.2l0.5-1.1L77,16.9l1.4,0l2.8,7l2.7-7.1l1.4,0l-4.2,10.1c-0.7,1.6-1.2,2-2.2,2
					c-0.8,0-1.3-0.3-1.3-0.3l0.3-1.1C78,27.6,78.4,27.8,78.8,27.8z"/>
			</g>
		</g>
		<g>
			<g>
				<path class="st0" d="M131.1,1.2v37.5H93.5V1.2H131.1 M132.3,0h-40v40h40V0L132.3,0z"/>
				<g>
					<g>
						<path class="st0" d="M101,27.9c-0.9-0.4-1.7-0.7-1.7-1.3c0-1,1.1-1.1,1.4-1.1c1.2,0,1.8,0.7,1.8,0.7l0.2,0.2l0.7-1.1l-0.1-0.1
							c0,0-0.8-0.9-2.5-0.9s-2.8,1-2.8,2.3c0,1.5,1.3,2,2.5,2.5c0.9,0.4,1.7,0.7,1.7,1.3c0,0.8-0.8,1.1-1.4,1.1
							c-1.4,0-2.2-0.9-2.2-0.9l-0.1-0.1l-0.8,1l0.1,0.1c0,0,1.1,1.2,3,1.2c1.6,0,2.8-1,2.8-2.4C103.5,28.9,102.2,28.4,101,27.9"/>
						<path class="st0" d="M108,24.2c-1.8,0-2.8,0.9-2.9,0.9l-0.1,0.1l0.7,1.1l0.1-0.1c0,0,0.9-0.7,2.1-0.7s1.8,0.6,1.8,1.9v0h-0.3
							c-1.2,0-5,0-5,2.9c0,1.6,1.4,2.5,2.8,2.5c1.3,0,2.1-0.7,2.5-1.3c0,0,0,0,0,0v1h1.3v-5.2C111.1,25.4,110,24.2,108,24.2
							 M109.8,28.6v0.2c0,1.3-0.9,2.8-2.2,2.8c-1.1,0-1.6-0.7-1.6-1.3c0-1.4,1.9-1.6,3.5-1.6H109.8z"/>
						<path class="st0" d="M115.7,30.3c-0.1,0.1-0.1,0.3-0.1,0.4c0-0.1-0.1-0.3-0.1-0.4l-2.2-5.9h-1.5l3.1,8.2h1.4l3.1-8.2h-1.4
							L115.7,30.3"/>
						<path class="st0" d="M123.6,24.2c-2.4,0-4,1.8-4,4.3s1.8,4.3,4.3,4.3c1.8,0,3-1.1,3-1.1l0.1-0.1l-0.7-1.1l-0.2,0.1
							c0,0-0.9,0.9-2.3,0.9c-1.9,0-2.8-1.4-2.9-2.8h6v-0.1c0,0,0-0.4,0-0.6C127,26.1,125.9,24.2,123.6,24.2 M121,27.5
							c0.3-1.3,1.2-2.1,2.5-2.1c0.9,0,1.9,0.5,2.1,2.1H121z"/>
					</g>
					<g>
						<path class="st0" d="M112.4,7.2H111l-5.1,9.6h0.1l-5.1-9.6h-3.2v1.3h1.8v12h-1.8v1.3h5.1v-1.3H101v-9.1c0-0.5-0.1-1.2-0.1-1.2
							h0.1c0,0,0.2,0.7,0.3,1.1l3.8,7.2h1.7l3.8-7.2c0.2-0.4,0.3-1.1,0.3-1.1h0.1c0,0-0.1,0.8-0.1,1.2v9h-1.8v1.3h5.1v-1.3h-1.8
							L112.4,7.2"/>
						<path class="st0" d="M125.5,14.5c0,2.7-1.7,5.1-3.7,5.6c-0.8,0.3-1.5,0.4-2.5,0.4h-2.6v-12h2.6c0.9,0,1.7,0,2.5,0.3
							C123.9,9.5,125.5,11.8,125.5,14.5 M127,14.5c0-3.6-1.8-6.1-4.6-7c-1-0.3-1.9-0.3-3.1-0.3h-6.1v1.3h1.8v13.3h4.3
							c1.2,0,2.1-0.1,3.1-0.4C125.2,20.5,127,18.1,127,14.5"/>
					</g>
				</g>
			</g>
			<path class="st0" d="M128.1,31.2c0.4,0,0.7,0.3,0.7,0.7s-0.3,0.7-0.7,0.7s-0.7-0.3-0.7-0.7S127.8,31.2,128.1,31.2 M128.1,32.5
				c0.3,0,0.5-0.2,0.5-0.6s-0.2-0.6-0.5-0.6s-0.5,0.2-0.5,0.6C127.6,32.2,127.8,32.5,128.1,32.5z M127.9,31.6h0.3
				c0.1,0,0.2,0.1,0.2,0.2c0,0.1-0.1,0.2-0.1,0.2l0,0c0,0,0,0,0,0.1l0.1,0.3h-0.2l-0.1-0.3h-0.1v0.3h-0.2V31.6z M128.1,31.9
				c0.1,0,0.1,0,0.1-0.1s0-0.1-0.1-0.1H128v0.2L128.1,31.9L128.1,31.9z"/>
		</g>
	</g>
</g>
</svg>
